<?xml version="1.0" encoding="utf-8"?>
<!-- Generator: Adobe Illustrator 24.1.2, SVG Export Plug-In . SVG Version: 6.00 Build 0)  -->
<svg version="1.1" id="Layer_1" xmlns="http://www.w3.org/2000/svg" xmlns:xlink="http://www.w3.org/1999/xlink" x="0px" y="0px"
	 viewBox="0 0 800 800" style="enable-background:new 0 0 800 800;" xml:space="preserve">
<style type="text/css">
	.st0{fill:none;stroke:#000000;stroke-width:30;stroke-linecap:round;stroke-linejoin:round;stroke-miterlimit:133.3333;}
</style>
<path class="st0" d="M333.3,266.7c5.9-16.7,17.5-30.8,32.7-39.7c15.3-9,33.2-12.2,50.6-9.3c17.4,3,33.3,12.1,44.7,25.6
	c11.4,13.5,17.6,30.7,17.6,48.4c0,50-74.9,74.9-74.9,74.9l-0.5,41 M403,466.7h0.3 M233.3,600v77.8c0,17.8,0,26.6,3.6,31.2
	c3.2,4,8,6.3,13,6.3c5.8,0,12.8-5.6,26.6-16.7l79.5-63.6c16.2-13,24.4-19.5,33.4-24.1c8-4.1,16.6-7.1,25.4-8.9c10-2,20.4-2,41.1-2
	H540c56,0,84,0,105.4-10.9c18.8-9.6,34.1-24.9,43.7-43.7C700,524,700,496,700,440V260c0-56,0-84-10.9-105.4
	c-9.6-18.8-24.9-34.1-43.7-43.7C624,100,596,100,540,100H260c-56,0-84,0-105.4,10.9c-18.8,9.6-34.1,24.9-43.7,43.7
	C100,176,100,204,100,260v206.7c0,31,0,46.5,3.4,59.2c9.2,34.5,36.2,61.5,70.7,70.7C186.8,600,202.3,600,233.3,600z"/>
<path class="st0" d="M400,425"/>
</svg>
