<svg xmlns="http://www.w3.org/2000/svg" width="512" height="512" viewBox="0 0 512 512" version="1.1"><path d="" stroke="none" fill="#f01cb4" fill-rule="evenodd"/><path d="M 301 0.526 C 300.175 0.688, 296.125 1.360, 292 2.020 C 274.958 4.749, 257.093 12.302, 243.518 22.519 C 220.031 40.196, 205.356 69.072, 202.078 104.060 C 201.489 110.352, 201.005 131.588, 201.003 151.250 L 201 187 162 187 L 123 187 123 233 L 123 279 162 279 L 201 279 201 395.500 L 201 512 248.500 512 L 296 512 296 395.512 L 296 279.023 335.213 278.762 L 374.426 278.500 380.158 234.500 C 383.310 210.300, 385.914 189.713, 385.945 188.750 C 385.997 187.108, 383.212 187, 341 187 L 296 187 296.017 153.750 C 296.036 117.195, 296.718 110.965, 301.704 101.799 C 303.340 98.792, 306.368 95.302, 309 93.390 C 318.222 86.690, 329.336 85.019, 364.750 85.008 L 389 85 389 44.080 L 389 3.159 382.750 2.551 C 364.290 0.755, 347.070 0.017, 326 0.118 C 313.075 0.181, 301.825 0.364, 301 0.526" stroke="none" fill="#ec1cb4" fill-rule="evenodd"/></svg>