<svg xmlns="http://www.w3.org/2000/svg" width="512" height="512" viewBox="0 0 512 512" version="1.1"><path d="" stroke="none" fill="#ec1cac" fill-rule="evenodd"/><path d="M 262.744 125.589 C 262.485 125.848, 260.974 126.259, 259.386 126.501 C 248.624 128.144, 240.229 132.614, 231.699 141.243 C 226.316 146.688, 219.002 160.931, 218.215 167.500 C 217.952 169.700, 217.683 179.261, 217.618 188.748 L 217.500 205.995 207.608 205.998 C 197.906 206, 197.661 206.058, 194.828 209.023 L 191.939 212.045 192.040 233.529 C 192.140 254.963, 192.146 255.020, 194.659 258.007 C 197.143 260.959, 197.313 261, 207.052 261 L 216.926 261 217.213 321.083 L 217.500 381.165 220.726 384.047 L 223.953 386.930 248.601 386.926 C 276.649 386.922, 278.185 386.594, 279.948 380.248 C 280.614 377.851, 280.991 355.681, 280.994 318.750 L 281 261 295.250 260.882 C 303.087 260.816, 309.789 260.800, 310.143 260.846 C 311.672 261.042, 316.007 255.894, 316.077 253.798 C 316.119 252.534, 316.330 250.600, 316.546 249.500 C 316.915 247.622, 317.274 243.191, 318.531 225.009 C 318.815 220.889, 319.223 216.555, 319.436 215.379 C 320.054 211.972, 316.659 207.382, 312.978 206.646 C 311.203 206.291, 303.281 206, 295.375 206 L 281 206 281 194.622 C 281 186.204, 281.357 182.949, 282.371 182.107 C 283.237 181.388, 289.487 180.883, 299.345 180.734 C 320.936 180.410, 319.422 182.412, 319.767 153.724 C 320.132 123.305, 321.973 124.918, 287.012 125.037 C 273.924 125.081, 263.004 125.330, 262.744 125.589 M 261.634 137.699 C 261.420 137.913, 259.999 138.314, 258.476 138.590 C 256.952 138.866, 254.772 139.747, 253.631 140.546 C 252.489 141.346, 250.985 142, 250.289 142 C 248.388 142, 244.679 145.332, 236.497 154.389 C 234.802 156.265, 231.047 165.303, 230.426 169 C 230.103 170.925, 229.762 182.625, 229.669 195 L 229.500 217.500 216.750 217.780 L 204 218.060 204 233.530 L 204 249 217 249 L 230 249 230 311.459 L 230 373.918 249.250 374.209 L 268.500 374.500 268.500 312 L 268.500 249.500 286.176 249.227 L 303.851 248.954 304.390 246.227 C 304.955 243.370, 305.952 232.189, 306.439 223.250 L 306.724 218 287.318 218 L 267.911 218 268.350 200.250 C 268.883 178.722, 268.858 179, 270.229 179 C 270.836 179, 271.048 178.715, 270.699 178.366 C 270.063 177.729, 273.043 173.308, 274.024 173.433 C 274.313 173.470, 275.828 172.494, 277.392 171.264 C 278.956 170.034, 280.601 169.253, 281.048 169.530 C 281.496 169.806, 282.144 169.575, 282.490 169.016 C 282.861 168.416, 288.211 168, 295.559 168 L 308 168 308 153 L 308 138 287.750 137.901 C 276.613 137.846, 266.268 137.691, 264.762 137.556 C 263.256 137.421, 261.848 137.485, 261.634 137.699" stroke="none" fill="#ec1cb4" fill-rule="evenodd"/></svg>