<svg version="1.1" id="Layer_1" xmlns="http://www.w3.org/2000/svg" xmlns:xlink="http://www.w3.org/1999/xlink" x="0px" y="0px"
	 width="100%" viewBox="0 0 512 512" enable-background="new 0 0 512 512" xml:space="preserve">
<path fill="#000000" opacity="1.000000" stroke="none" 
	d="
M235.000000,513.000000 
	C158.018661,513.000000 81.537285,512.974243 5.056119,513.087524 
	C1.756187,513.092407 0.896154,512.596924 0.898604,509.057892 
	C1.014886,341.098938 1.017397,173.139908 0.889222,5.180982 
	C0.886327,1.387997 1.896516,0.916514 5.317074,0.918414 
	C173.109421,1.011591 340.901794,1.012059 508.694122,0.915847 
	C512.145020,0.913868 513.111328,1.430222 513.108521,5.192201 
	C512.983093,172.984497 512.983154,340.776886 513.104370,508.569214 
	C513.107178,512.473938 512.056702,513.091675 508.432831,513.087280 
	C417.455322,512.976257 326.477631,513.000000 235.000000,513.000000 
z"/>
<path fill="#EB19B0" opacity="1.000000" stroke="none" 
	d="
M218.000198,340.000000 
	C218.000183,315.167206 217.902695,290.833649 218.100372,266.502472 
	C218.131683,262.647766 217.029617,261.628357 213.372482,261.926361 
	C209.398956,262.250122 205.377808,262.051697 201.378952,261.986847 
	C196.078888,261.900909 193.053299,259.024536 193.024017,253.819489 
	C192.951843,240.986862 192.953247,228.153290 193.021790,215.320618 
	C193.052338,209.598038 196.411835,206.833496 203.983597,206.005447 
	C204.477859,205.951401 204.983047,206.004333 205.482773,205.991806 
	C209.455139,205.892303 214.889542,207.333954 217.035950,205.302551 
	C219.826523,202.661545 217.891739,197.153503 217.957901,192.890030 
	C218.138687,181.241623 217.215103,169.532684 221.886978,158.350937 
	C228.953171,141.438599 241.296051,130.392471 259.211060,127.210960 
	C276.926880,124.064819 295.014252,126.455704 312.932983,126.085220 
	C317.263763,125.995682 320.984467,130.530396 320.992188,134.948029 
	C321.013947,147.447708 321.001953,159.947449 320.998779,172.447174 
	C320.997345,178.065018 317.268219,181.927032 311.603394,181.981567 
	C303.937592,182.055374 296.270416,182.032715 288.604156,181.988022 
	C284.100983,181.961777 281.941040,184.113342 281.989716,188.613602 
	C282.038422,193.112961 282.174011,197.622375 281.939117,202.109970 
	C281.783478,205.083771 282.519440,206.191147 285.743561,206.073868 
	C292.900574,205.813522 300.073639,205.982285 307.240112,205.995422 
	C317.956940,206.015076 320.805939,210.010681 320.207581,220.703430 
	C319.663971,230.418137 318.243195,240.051132 318.004669,249.773941 
	C317.766815,259.470520 313.814026,262.667664 305.532898,262.087463 
	C299.230621,261.645905 292.858978,262.250244 286.544525,261.906219 
	C282.737061,261.698792 281.894348,262.884216 281.910950,266.584503 
	C282.062683,300.416412 282.000092,334.249237 282.000061,368.081818 
	C282.000061,371.581757 282.047852,375.082489 281.988495,378.581421 
	C281.895020,384.090973 278.201447,387.951843 272.775085,387.976471 
	C257.942383,388.043823 243.108841,388.057922 228.276321,387.972504 
	C221.752930,387.934937 218.057175,384.118652 218.020157,377.498444 
	C217.951202,365.165985 218.000259,352.832855 218.000198,340.000000 
z"/>
<path fill="#000000" opacity="1.000000" stroke="none" 
	d="
M308.174072,168.508545 
	C301.427002,168.949509 294.926514,169.157028 288.438263,168.960068 
	C277.067291,168.614944 268.593567,176.988022 268.947327,188.666733 
	C269.209442,197.319824 269.166656,205.992096 268.916138,214.645874 
	C268.816223,218.096329 269.684479,219.165878 273.266449,219.089981 
	C284.730011,218.847000 296.201935,218.999771 307.750031,218.999771 
	C306.399261,225.314865 307.036469,231.389954 306.206085,237.387970 
	C305.717743,240.915115 304.948944,244.499557 304.962616,248.133545 
	C304.973389,251.003281 302.650818,249.938934 301.274597,249.952225 
	C291.948212,250.042313 282.615692,250.171951 273.295715,249.911423 
	C269.752838,249.812408 268.906097,250.840836 268.917755,254.323288 
	C269.046692,292.797821 268.907257,331.273468 269.121002,369.747223 
	C269.146179,374.275146 267.913788,375.269348 263.629578,375.104279 
	C254.648773,374.758301 245.637085,374.771637 236.654724,375.097168 
	C232.287979,375.255432 230.847443,374.280670 230.875168,369.533203 
	C231.097885,331.392670 230.931549,293.249939 231.099030,255.108841 
	C231.116974,251.026489 230.254639,249.626617 225.985352,249.895889 
	C219.681473,250.293518 213.333527,249.992661 206.541641,249.956818 
	C204.821487,239.936859 205.758163,229.912399 205.826416,219.490936 
	C212.898209,219.049942 219.731247,218.756058 226.531601,219.102921 
	C230.459595,219.303268 231.148865,217.928940 231.083939,214.353607 
	C230.863525,202.214508 230.797089,190.064789 231.045685,177.926773 
	C231.455490,157.918076 243.771469,143.147888 263.132111,139.291290 
	C270.814362,137.760986 279.050995,139.008011 287.035248,139.001526 
	C293.688995,138.996109 300.342743,139.006729 307.459229,139.043060 
	C309.206604,148.728851 308.223694,158.421204 308.174072,168.508545 
z"/>
<path fill="#FF0099" opacity="1.000000" stroke="none" 
	d="
M205.833817,219.401459 
	C206.056259,229.051010 206.033630,239.026978 206.044968,249.463669 
	C204.226547,247.416077 204.993546,244.512711 205.057709,241.805756 
	C205.232117,234.446808 204.278214,227.056976 205.833817,219.401459 
z"/>
<path fill="#FF0099" opacity="1.000000" stroke="none" 
	d="
M308.166931,168.597763 
	C307.944366,159.281845 307.966736,149.639572 307.955566,139.536591 
	C309.876007,141.920471 308.986908,145.148132 308.931000,148.175049 
	C308.807251,154.873138 309.719177,161.605576 308.166931,168.597763 
z"/>
</svg>