<svg xmlns="http://www.w3.org/2000/svg" width="512" height="512" viewBox="0 0 512 512" version="1.1"><path d="" stroke="none" fill="#ec14b4" fill-rule="evenodd"/><path d="M 182.261 1.065 C 171.698 2.439, 156.250 6.776, 146.142 11.205 C 117.523 23.746, 95.406 46.874, 83.700 76.500 C 75.839 96.394, 73.997 108.386, 73.295 144.250 L 72.732 173 46.616 173.010 C 21.299 173.019, 20.345 173.092, 15.444 175.374 C 9.531 178.127, 3.804 184.372, 2.161 189.858 C 1.353 192.554, 1.007 207.386, 1.022 238.616 C 1.043 280.860, 1.158 283.751, 2.982 287.770 C 5.197 292.650, 9.704 297.170, 15.500 300.324 C 19.276 302.378, 21 302.518, 46.226 302.822 L 72.951 303.145 73.226 398.322 L 73.500 493.500 76.490 498.899 C 78.602 502.712, 81.074 505.357, 84.902 507.899 L 90.324 511.500 138.127 511.778 C 189.923 512.079, 188.986 512.163, 196.338 506.556 C 198.175 505.155, 200.988 501.644, 202.589 498.754 L 205.500 493.500 205.774 398.324 L 206.049 303.148 237.774 302.812 C 265.622 302.516, 269.989 302.257, 273.500 300.687 C 279.041 298.210, 283.814 293.409, 286.613 287.500 L 288.980 282.500 288.990 238.270 C 288.999 199.535, 288.795 193.510, 287.349 189.770 C 284.930 183.514, 281.538 179.401, 276.216 176.272 L 271.500 173.500 238.696 173.199 L 205.893 172.898 206.196 150.975 C 206.491 129.695, 206.567 128.985, 208.777 126.776 C 211.023 124.530, 211.465 124.493, 242.277 123.971 C 271.678 123.472, 273.733 123.317, 277.500 121.308 C 282.200 118.802, 287.028 113.906, 289.638 109 C 291.373 105.739, 291.500 102.493, 291.500 61.500 L 291.500 17.500 288.800 12.906 C 287.314 10.380, 284.502 7.095, 282.549 5.605 C 275.126 -0.057, 275.565 -0.011, 230.282 0.127 C 207.302 0.197, 185.692 0.619, 182.261 1.065 M 195 30.680 C 149.894 34.639, 119.801 58.311, 108.651 98.604 C 104.749 112.703, 104 122.139, 104 157.191 C 104 182.693, 103.694 190.796, 102.636 193.329 C 100.897 197.491, 95.986 201.632, 91.219 202.956 C 89.067 203.554, 75.597 203.991, 59.250 203.994 L 31 204 31 238 L 31 272 61.250 272.016 C 90.777 272.033, 91.595 272.087, 95.480 274.287 C 97.711 275.551, 100.449 278.289, 101.713 280.520 L 103.967 284.500 103.984 383.250 L 104 482 139.500 482 L 175 482 175.016 383.250 L 175.033 284.500 177.287 280.520 C 178.551 278.289, 181.289 275.551, 183.520 274.287 C 187.440 272.067, 188.035 272.033, 222.750 272.016 L 258 272 258 238.048 L 258 204.095 222.750 203.798 C 183.406 203.465, 183.793 203.530, 178.302 196.326 L 175.500 192.650 175.544 159.075 C 175.586 127.244, 175.700 125.202, 177.734 119.767 C 183.206 105.152, 192.895 97.281, 208.937 94.419 C 213.735 93.563, 224.635 93.057, 238.750 93.035 L 261 93 261 61.475 L 261 29.950 229.750 30.161 C 212.563 30.278, 196.925 30.511, 195 30.680" stroke="none" fill="#ec1cb4" fill-rule="evenodd"/></svg>