<svg xmlns="http://www.w3.org/2000/svg" width="512" height="512" viewBox="0 0 512 512" version="1.1"><path d="M 191.250 42.750 C 226.862 42.895, 285.137 42.895, 320.750 42.750 C 356.362 42.604, 327.225 42.485, 256 42.485 C 184.775 42.485, 155.637 42.604, 191.250 42.750 M 191.250 469.750 C 226.862 469.895, 285.137 469.895, 320.750 469.750 C 356.362 469.604, 327.225 469.485, 256 469.485 C 184.775 469.485, 155.637 469.604, 191.250 469.750" stroke="none" fill="#ec1cac" fill-rule="evenodd"/><path d="M 112.835 0.498 C 112.559 0.774, 111.021 1.193, 109.417 1.430 C 107.812 1.666, 105.150 2.136, 103.500 2.475 C 101.850 2.814, 99.487 3.295, 98.250 3.545 C 91.627 4.884, 90.552 5.160, 89.570 5.773 C 88.982 6.141, 87.678 6.570, 86.672 6.727 C 84.123 7.124, 74.622 11.219, 73.927 12.221 C 73.611 12.675, 72.307 13.248, 71.029 13.495 C 68.748 13.934, 54.155 22.919, 50.789 25.956 C 49.848 26.805, 47.875 28.400, 46.404 29.500 C 37.763 35.962, 32.855 41.351, 22.421 55.837 C 12.228 69.989, 3.117 93.209, 0.972 110.500 C 0.353 115.494, 0.029 171.112, 0.111 258.500 C 0.241 397.858, 0.339 402.418, 3.434 414 C 3.802 415.375, 4.331 417.625, 4.611 419 C 4.891 420.375, 5.543 421.928, 6.060 422.450 C 6.577 422.973, 7 424.293, 7 425.384 C 7 427.922, 13.834 443.204, 15.250 443.833 C 15.662 444.017, 16 444.715, 16 445.384 C 16 446.713, 23.545 458.882, 25.371 460.500 C 25.992 461.050, 27.828 463.300, 29.452 465.500 C 36.311 474.797, 60.448 495, 64.694 495 C 65.321 495, 65.983 495.416, 66.167 495.925 C 66.350 496.434, 67.175 496.996, 68 497.175 C 68.825 497.354, 69.725 497.762, 70 498.083 C 71.042 499.299, 81.958 504, 83.738 504 C 84.762 504, 86.028 504.423, 86.550 504.940 C 87.073 505.457, 88.625 506.113, 90 506.398 C 91.375 506.683, 94.975 507.592, 98 508.419 C 101.025 509.246, 105.525 510.277, 108 510.711 C 113.807 511.729, 398.209 511.748, 403.500 510.731 C 405.700 510.308, 408.967 509.725, 410.759 509.434 C 414.709 508.794, 428.351 504.539, 432.500 502.653 C 442.929 497.913, 446.285 496.112, 453 491.649 C 462.576 485.285, 468.237 480.777, 474.522 474.508 C 481.003 468.044, 488 459.532, 488 458.111 C 488 457.500, 488.398 457, 488.883 457 C 489.369 457, 490.051 456.212, 490.399 455.250 C 491.302 452.753, 493.407 449.312, 495.339 447.178 C 496.252 446.169, 497 444.590, 497 443.671 C 497 442.752, 497.415 442, 497.922 442 C 498.430 442, 499.388 440.313, 500.053 438.250 C 500.717 436.188, 501.575 434.050, 501.958 433.500 C 502.816 432.270, 505.913 423.958, 506.473 421.384 C 506.698 420.348, 507.579 416.909, 508.430 413.743 C 509.282 410.577, 510.213 406.117, 510.500 403.832 C 510.787 401.548, 511.580 398.989, 512.261 398.147 C 513.249 396.927, 513.246 396.769, 512.250 397.367 C 511.416 397.868, 511 397.452, 511 396.118 C 511 395.018, 511.441 393.846, 511.980 393.512 C 513.228 392.741, 513.374 114, 512.127 114 C 511.647 114, 511.006 111.862, 510.703 109.250 C 509.682 100.452, 504.902 83.306, 502.409 79.501 C 501.545 78.183, 500.752 76.518, 500.646 75.802 C 500.265 73.231, 497.740 68, 496.879 68 C 496.395 68, 496.079 67.663, 496.175 67.250 C 496.454 66.048, 493.761 61, 492.839 61 C 492.378 61, 492 60.410, 492 59.689 C 492 58.967, 491.182 57.499, 490.183 56.427 C 489.184 55.354, 487.933 53.702, 487.403 52.755 C 485.121 48.677, 471.508 34.212, 465.988 30 C 464.186 28.625, 461.869 26.704, 460.838 25.732 C 458.058 23.109, 445.002 14.894, 444.985 15.757 C 444.976 16.165, 444.639 16, 444.235 15.390 C 443.249 13.900, 437.004 10.743, 436.985 11.724 C 436.976 12.151, 436.639 12.050, 436.235 11.500 C 435.609 10.648, 430.875 8.524, 427.500 7.581 C 426.950 7.428, 425.748 6.974, 424.828 6.574 C 423.909 6.174, 422.559 5.730, 421.828 5.589 C 421.098 5.448, 418.006 4.578, 414.958 3.656 C 411.910 2.733, 407.410 1.679, 404.958 1.312 C 399.805 0.541, 113.590 -0.256, 112.835 0.498 M 119 43.504 C 106.330 45.419, 104.587 45.819, 99.571 47.969 C 97.043 49.053, 94.643 50.007, 94.237 50.090 C 86.369 51.689, 68.640 65.658, 59.500 77.460 C 55.553 82.556, 50.629 91.505, 49.023 96.500 C 48.316 98.700, 47.459 100.950, 47.119 101.500 C 46.778 102.050, 45.859 105.200, 45.075 108.500 C 43.885 113.506, 43.593 137.578, 43.308 253.838 C 42.972 391.242, 42.995 393.297, 45.008 401.838 C 47.458 412.232, 51.573 423.401, 53.560 425.049 C 54.352 425.707, 55 426.796, 55 427.469 C 55 428.143, 55.788 429.648, 56.750 430.814 C 57.713 431.980, 59.824 434.749, 61.442 436.967 C 63.060 439.185, 64.747 441, 65.192 441 C 65.636 441, 66 441.675, 66 442.500 C 66 443.325, 66.338 444.006, 66.750 444.012 C 67.162 444.019, 69.432 445.819, 71.793 448.012 C 74.155 450.206, 76.311 452, 76.584 452 C 77.068 452, 82.999 455.999, 84 457 C 84.698 457.698, 92.519 461.367, 98.560 463.829 C 104.570 466.279, 106.902 466.781, 122.500 468.975 C 126.790 469.579, 178.430 469.968, 255.872 469.980 C 366.745 469.998, 383.547 469.804, 392.872 468.398 C 405.076 466.559, 404.121 466.749, 410 464.992 C 412.475 464.252, 414.837 463.726, 415.250 463.823 C 415.663 463.921, 416 463.622, 416 463.160 C 416 462.698, 417.806 461.724, 420.014 460.995 C 422.222 460.267, 424.527 459.070, 425.137 458.335 C 425.746 457.601, 426.692 457, 427.238 457 C 429.188 457, 438.609 449.530, 445.121 442.821 C 448.763 439.070, 451.463 435.986, 451.121 435.968 C 450.779 435.951, 451.214 435.388, 452.086 434.718 C 455.652 431.979, 466 410.802, 466 406.243 C 466 405.193, 466.298 404.035, 466.663 403.671 C 467.027 403.306, 467.477 401.544, 467.662 399.754 C 467.847 397.964, 468.217 395.150, 468.483 393.500 C 469.031 390.108, 469.147 122.871, 468.603 119 C 467.532 111.391, 466.767 107.518, 465.866 105.148 C 465.312 103.692, 464.899 102.385, 464.948 102.246 C 465.164 101.620, 463.631 96.449, 463.096 96 C 462.768 95.725, 461.170 92.800, 459.545 89.500 C 456.903 84.137, 452.296 77.104, 448.765 73.047 C 448.069 72.247, 446.293 70.086, 444.817 68.243 C 443.341 66.401, 441.938 65.030, 441.698 65.197 C 441.458 65.364, 438.993 63.475, 436.221 61 C 431.522 56.806, 418.437 49.260, 416.750 49.772 C 416.337 49.898, 416 49.475, 416 48.833 C 416 48.192, 415.738 47.928, 415.418 48.248 C 415.099 48.568, 413.350 48.209, 411.533 47.449 C 407.932 45.945, 406.188 45.587, 392 43.446 C 378.794 41.452, 132.226 41.505, 119 43.504 M 388 85.680 C 387.175 85.943, 385.825 86.419, 385 86.738 C 384.175 87.057, 383.163 87.246, 382.750 87.159 C 382.337 87.071, 382 87.477, 382 88.059 C 382 88.641, 381.592 88.866, 381.092 88.557 C 378.985 87.255, 365 100.666, 366.696 102.363 C 367.047 102.713, 366.808 103, 366.167 103 C 365.525 103, 365.073 103.338, 365.161 103.750 C 365.250 104.162, 364.738 105.850, 364.022 107.500 C 362.478 111.060, 362.263 124.384, 363.720 126.217 C 364.281 126.923, 365.283 129.188, 365.947 131.250 C 366.612 133.313, 367.570 135, 368.078 135 C 368.585 135, 369 135.535, 369 136.188 C 369 138.356, 377.418 144.932, 383 147.125 C 389.673 149.747, 398.763 149.904, 405.937 147.521 C 411.745 145.592, 422.583 135.592, 423.633 131.194 C 423.987 129.712, 424.539 128.050, 424.860 127.500 C 426.519 124.658, 427.082 115.363, 425.891 110.500 C 422.257 95.662, 411.428 86.494, 396.500 85.614 C 392.650 85.387, 388.825 85.417, 388 85.680 M 0.486 254.500 C 0.486 328.750, 0.605 359.273, 0.750 322.328 C 0.895 285.383, 0.895 224.633, 0.750 187.328 C 0.605 150.023, 0.486 180.250, 0.486 254.500 M 239 128.701 C 236.525 129.044, 234.956 129.390, 221.651 132.528 C 214.081 134.313, 203.464 138.529, 200.750 140.828 C 199.787 141.643, 199 141.982, 199 141.582 C 199 139.980, 180.856 151.433, 175 156.731 C 161.868 168.613, 151 180.356, 151 182.664 C 151 183.192, 150.027 184.667, 148.839 185.943 C 146.437 188.521, 136 208.715, 136 210.784 C 136 211.507, 135.360 213.337, 134.578 214.849 C 133.796 216.361, 132.859 219.591, 132.496 222.028 C 132.132 224.464, 131.564 226.896, 131.233 227.432 C 128.202 232.336, 127.084 274.987, 129.898 278.377 C 130.599 279.222, 130.928 280.308, 130.629 280.791 C 130.155 281.559, 131.162 286.385, 132.759 291 C 133.044 291.825, 133.367 293.175, 133.476 294 C 133.669 295.456, 136.099 301.516, 140.393 311.250 C 141.545 313.862, 142.855 316, 143.303 316 C 143.751 316, 143.840 316.450, 143.500 317 C 143.160 317.550, 143.359 318, 143.941 318 C 144.523 318, 144.894 318.337, 144.765 318.750 C 144.635 319.163, 145.648 321, 147.015 322.834 C 148.382 324.667, 149.500 326.500, 149.500 326.905 C 149.500 327.311, 150.287 328.430, 151.250 329.393 C 152.213 330.355, 153 331.494, 153 331.923 C 153 332.352, 154.350 334.116, 156 335.843 C 157.650 337.569, 159 339.236, 159 339.546 C 159 339.857, 161.925 343.036, 165.500 346.611 C 169.075 350.186, 172 352.827, 172 352.479 C 172 352.131, 173.181 353.250, 174.624 354.966 C 176.068 356.681, 177.458 357.875, 177.714 357.619 C 177.970 357.363, 179.471 358.388, 181.049 359.896 C 182.627 361.405, 185.732 363.507, 187.948 364.569 C 190.164 365.631, 191.982 366.864, 191.989 367.309 C 191.995 367.754, 192.450 367.840, 193 367.500 C 193.550 367.160, 194 367.385, 194 368 C 194 368.615, 194.450 368.840, 195 368.500 C 195.550 368.160, 196 368.277, 196 368.759 C 196 369.241, 199.713 371.107, 204.250 372.906 C 208.787 374.705, 213.625 376.760, 215 377.473 C 216.375 378.186, 218.850 379.054, 220.500 379.401 C 225.430 380.441, 227.279 380.884, 232 382.159 C 238.302 383.861, 276.477 383.923, 278.166 382.234 C 278.845 381.555, 280.856 381, 282.635 381 C 284.414 381, 287.137 380.509, 288.685 379.908 C 290.233 379.307, 292.611 378.606, 293.969 378.349 C 295.327 378.092, 297.014 377.403, 297.719 376.818 C 298.424 376.234, 299 376.090, 299 376.500 C 299 376.910, 299.675 376.685, 300.500 376 C 301.325 375.315, 302 375.087, 302 375.493 C 302 375.898, 303.125 375.493, 304.500 374.592 C 305.875 373.691, 307 373.198, 307 373.497 C 307 374.096, 315.198 370.103, 316 369.115 C 316.275 368.776, 318.637 367.454, 321.250 366.179 C 323.863 364.903, 326 363.415, 326 362.871 C 326 362.327, 326.403 362.131, 326.895 362.435 C 327.388 362.740, 328.050 362.312, 328.367 361.485 C 328.685 360.658, 329.339 360.098, 329.821 360.241 C 332.546 361.047, 361.022 332.647, 360.250 329.892 C 360.112 329.402, 360.461 329, 361.025 329 C 361.588 329, 362.487 327.988, 363.022 326.750 C 363.557 325.512, 364.411 323.825, 364.920 323 C 368.770 316.757, 371.888 311, 371.419 311 C 371.110 311, 371.502 310.355, 372.289 309.568 C 373.490 308.368, 379.485 291.555, 379.267 290 C 379.229 289.725, 379.634 288.684, 380.167 287.687 C 380.701 286.691, 381.166 284.441, 381.200 282.687 C 381.235 280.934, 381.633 279.029, 382.085 278.454 C 383.053 277.221, 383.015 277.777, 383.477 258 C 383.676 249.475, 383.407 240.475, 382.879 238 C 382.350 235.525, 381.886 232.825, 381.848 232 C 381.809 231.175, 380.977 227.350, 379.998 223.500 C 378.309 216.855, 377.465 214.576, 372.778 204 C 371.681 201.525, 370.924 199.500, 371.097 199.500 C 371.269 199.500, 369.864 196.688, 367.974 193.250 C 366.085 189.813, 364.192 187, 363.769 187 C 363.346 187, 363 186.502, 363 185.894 C 363 184.946, 361.142 182.273, 355.426 175 C 351.500 170.006, 335.639 155.242, 331 152.264 C 327.975 150.323, 325.275 148.456, 325 148.117 C 323.711 146.527, 309.262 139, 307.497 139 C 306.765 139, 306.017 138.563, 305.833 138.029 C 305.650 137.495, 304.600 136.894, 303.500 136.694 C 302.400 136.494, 300.375 135.863, 299 135.291 C 294.454 133.402, 286.554 131.041, 283 130.510 C 281.075 130.222, 277.250 129.588, 274.500 129.101 C 269.737 128.257, 244.280 127.970, 239 128.701 M 246 171.077 C 239.046 172.073, 224.128 176.812, 217.742 180.054 C 210.544 183.709, 203.819 188.395, 198 193.811 C 195.526 196.115, 193.163 198, 192.750 198 C 192.338 198, 192 198.447, 192 198.992 C 192 199.894, 189.471 203.224, 186.250 206.562 C 185.563 207.274, 185 208.302, 185 208.845 C 185 209.389, 184.662 209.983, 184.250 210.167 C 183.294 210.591, 179.638 218.025, 177.199 224.500 C 176.164 227.250, 174.940 230.400, 174.479 231.500 C 174.018 232.600, 173.544 234.175, 173.425 235 C 173.306 235.825, 172.672 239.650, 172.016 243.500 C 170.477 252.530, 170.627 266.175, 172.318 271 C 172.608 271.825, 173.390 274.975, 174.056 278 C 174.723 281.025, 175.883 284.715, 176.634 286.200 C 177.385 287.686, 178 289.823, 178 290.950 C 178 292.078, 178.450 293, 179 293 C 179.550 293, 180 293.493, 180 294.095 C 180 296.097, 189.129 308.830, 194.854 314.813 C 200.028 320.220, 215.253 332, 217.066 332 C 217.489 332, 220.009 332.976, 222.667 334.168 C 225.325 335.361, 227.838 336.430, 228.250 336.543 C 228.662 336.657, 229.225 336.863, 229.500 337 C 229.775 337.137, 230.450 337.363, 231 337.500 C 231.550 337.637, 232.338 337.860, 232.750 337.993 C 233.162 338.127, 233.822 338.189, 234.215 338.130 C 234.609 338.071, 236.010 338.433, 237.329 338.935 C 243.374 341.233, 267.193 341.889, 270.500 339.848 C 271.050 339.508, 273.479 338.903, 275.898 338.502 C 278.317 338.102, 281.805 337.144, 283.648 336.374 C 285.492 335.603, 287 335.170, 287 335.410 C 287 335.651, 290.262 334.019, 294.250 331.785 C 298.238 329.550, 302.509 327.222, 303.742 326.611 C 304.975 326, 305.988 325.163, 305.992 324.750 C 305.996 324.337, 306.466 324, 307.036 324 C 307.606 324, 311.319 320.738, 315.286 316.750 C 324.725 307.264, 330.571 298.820, 334.126 289.538 C 335.187 286.767, 336.471 283.600, 336.980 282.500 C 338.301 279.642, 341.225 261.333, 341.212 256 C 341.195 248.924, 338.238 232.721, 336.019 227.543 C 334.908 224.953, 333.996 222.309, 333.990 221.667 C 333.985 221.025, 332.185 217.669, 329.990 214.210 C 327.796 210.750, 326 207.718, 326 207.471 C 326 205.815, 307.765 187, 306.160 187 C 305.565 187, 304.160 186.015, 303.039 184.811 C 301.918 183.608, 301 183.002, 301 183.466 C 301 183.930, 300.196 183.582, 299.213 182.693 C 297.259 180.925, 289.951 177.517, 288.750 177.814 C 288.337 177.916, 288 177.475, 288 176.833 C 288 176.192, 287.704 175.963, 287.342 176.325 C 286.980 176.687, 286.080 176.481, 285.342 175.869 C 284.604 175.256, 284 175.047, 284 175.403 C 284 175.760, 282.608 175.332, 280.907 174.452 C 279.206 173.572, 277.592 173.075, 277.320 173.347 C 277.048 173.618, 274.620 173.185, 271.923 172.385 C 266.477 170.767, 252.933 170.084, 246 171.077" stroke="none" fill="#ec1cb4" fill-rule="evenodd"/></svg>