<svg xmlns="http://www.w3.org/2000/svg" width="512" height="512" viewBox="0 0 512 512" version="1.1"><path d="M 267.232 251 C 267.232 252.925, 267.438 253.713, 267.689 252.750 C 267.941 251.787, 267.941 250.213, 267.689 249.250 C 267.438 248.287, 267.232 249.075, 267.232 251 M 267.252 315.500 C 267.263 317.700, 267.468 318.482, 267.707 317.238 C 267.946 315.994, 267.937 314.194, 267.687 313.238 C 267.437 312.282, 267.241 313.300, 267.252 315.500 M 191.250 428.716 C 192.762 428.945, 195.238 428.945, 196.750 428.716 C 198.262 428.487, 197.025 428.300, 194 428.300 C 190.975 428.300, 189.738 428.487, 191.250 428.716" stroke="none" fill="#ec1cac" fill-rule="evenodd"/><path d="M 266.946 180.250 C 266.979 279.387, 266.747 362.075, 266.430 364 C 266.113 365.925, 265.721 368.400, 265.558 369.500 C 265.396 370.600, 264.753 372.767, 264.131 374.315 C 263.509 375.863, 263 377.770, 263 378.551 C 263 379.333, 260.975 383.634, 258.500 388.108 C 256.025 392.582, 254 396.414, 254 396.622 C 254 396.830, 253.213 397.855, 252.250 398.899 C 244.845 406.935, 242.935 408.823, 239.766 411.235 C 237.790 412.739, 235.537 414.606, 234.760 415.383 C 230.739 419.404, 213.741 425.990, 202.171 428.011 C 193.510 429.524, 174.248 427.784, 168 424.924 C 167.725 424.798, 167.050 424.631, 166.500 424.551 C 165.950 424.472, 164.487 423.850, 163.250 423.169 C 162.012 422.487, 161 422.240, 161 422.620 C 161 422.999, 160.213 422.658, 159.250 421.862 C 158.287 421.065, 156.150 419.767, 154.500 418.976 C 139.761 411.911, 122.866 389.610, 118.534 371.500 C 116.828 364.369, 116.073 344.734, 117.323 340 C 117.686 338.625, 118.170 336.600, 118.398 335.500 C 118.626 334.400, 119.552 331.475, 120.457 329 C 121.361 326.525, 122.209 324.050, 122.340 323.500 C 122.831 321.436, 130.986 308.218, 133.774 304.966 C 137.595 300.509, 139.722 298.344, 141.599 297 C 142.751 296.175, 146.114 293.700, 149.072 291.500 C 152.030 289.300, 154.798 287.613, 155.225 287.750 C 155.651 287.888, 156 287.550, 156 287 C 156 286.450, 156.563 285.997, 157.250 285.994 C 157.938 285.990, 159.715 285.354, 161.199 284.580 C 164.107 283.063, 173.629 280.115, 178.500 279.223 C 187.281 277.616, 204.716 278.763, 213.750 281.541 L 216 282.233 216 239.585 C 216 199.891, 215.879 196.891, 214.250 196.266 C 212.045 195.419, 176.877 195.290, 171.500 196.109 C 160.914 197.720, 148.957 200.425, 142.564 202.654 C 138.679 204.008, 135.050 205.245, 134.500 205.402 C 133.950 205.559, 132.262 206.031, 130.750 206.452 C 129.238 206.873, 128 207.618, 128 208.108 C 128 208.599, 127.529 209, 126.954 209 C 125.265 209, 110.532 216.105, 110.167 217.095 C 109.983 217.593, 109.196 218, 108.417 218 C 107.637 218, 107 218.450, 107 219 C 107 219.550, 106.637 219.888, 106.194 219.750 C 105.175 219.434, 98.016 224.243, 98.007 225.250 C 98.003 225.662, 97.311 226, 96.469 226 C 95.626 226, 94.678 226.675, 94.362 227.500 C 94.045 228.325, 93.355 229, 92.829 229 C 91.758 229, 89.369 231.102, 77.919 242.122 C 73.564 246.314, 70 250.023, 70 250.363 C 70 250.704, 68.650 252.273, 67 253.850 C 65.350 255.426, 64 257.230, 64 257.858 C 64 258.486, 63.647 259, 63.216 259 C 62.784 259, 61.572 260.462, 60.522 262.250 C 59.472 264.038, 58.031 266.088, 57.321 266.807 C 53.725 270.445, 41 295.881, 41 299.430 C 41 300.229, 40.519 301.179, 39.932 301.542 C 39.344 301.905, 39.105 302.832, 39.400 303.601 C 39.696 304.371, 39.501 305, 38.969 305 C 38.436 305, 38 306.096, 38 307.435 C 38 308.774, 37.496 311.137, 36.879 312.685 C 36.263 314.233, 35.610 316.400, 35.427 317.500 C 35.245 318.600, 34.853 320.625, 34.556 322 C 34.259 323.375, 33.776 325.625, 33.483 327 C 30.949 338.867, 30.670 363.802, 32.923 377 C 34.906 388.615, 38.635 402.822, 40.129 404.450 C 40.608 404.973, 41 406.216, 41 407.214 C 41 408.211, 41.380 409.809, 41.844 410.764 C 47.420 422.240, 52.470 432.068, 54.040 434.500 C 55.106 436.150, 56.295 438.175, 56.683 439 C 57.071 439.825, 57.863 441.047, 58.444 441.715 C 60.936 444.583, 61.720 445.657, 62.099 446.715 C 63.062 449.412, 81.520 469.198, 88.033 474.514 C 93.556 479.023, 104.150 486.566, 108.679 489.213 C 116.959 494.054, 132.352 501.170, 135.750 501.728 C 137.537 502.021, 139 502.690, 139 503.214 C 139 503.738, 139.563 503.966, 140.250 503.721 C 140.938 503.475, 142.631 503.844, 144.013 504.540 C 145.395 505.237, 148.770 506.132, 151.513 506.529 C 154.256 506.927, 157.043 507.684, 157.706 508.212 C 158.370 508.740, 159.382 508.882, 159.956 508.527 C 160.530 508.172, 161.563 508.233, 162.250 508.663 C 164.377 509.992, 169.942 510.607, 188.167 511.528 C 199.980 512.125, 212.168 511.035, 223 508.411 C 224.375 508.078, 226.512 507.759, 227.750 507.703 C 228.988 507.646, 230 507.213, 230 506.741 C 230 506.269, 230.484 506.181, 231.076 506.547 C 231.954 507.090, 238.720 505.093, 249 501.258 C 249.825 500.950, 250.950 500.596, 251.500 500.470 C 253.778 499.952, 266.526 493.596, 266.835 492.824 C 267.020 492.364, 267.531 492.210, 267.972 492.483 C 268.413 492.755, 269.329 492.308, 270.009 491.489 C 270.689 490.670, 271.833 490, 272.551 490 C 273.269 490, 274.474 489.383, 275.227 488.630 C 275.981 487.876, 277.926 486.564, 279.549 485.715 C 281.172 484.865, 283.494 483.232, 284.708 482.085 C 285.923 480.938, 287.276 480, 287.716 480 C 289.329 480, 312 459.095, 312 457.607 C 312 457.368, 313.462 455.587, 315.250 453.649 C 319.987 448.516, 320.578 447.728, 324.115 441.845 C 325.882 438.905, 328.127 435.600, 329.104 434.499 C 331.147 432.199, 341.829 410.183, 342.266 407.373 C 342.427 406.343, 342.909 404.938, 343.338 404.250 C 343.767 403.563, 343.855 403, 343.533 403 C 343.212 403, 343.647 401.650, 344.500 400 C 345.353 398.350, 345.809 397, 345.512 397 C 345.216 397, 345.613 395.470, 346.394 393.599 C 347.685 390.509, 349.583 381.011, 350.710 372 C 350.950 370.075, 351.272 323.829, 351.425 269.232 C 351.577 214.635, 351.948 169.719, 352.248 169.419 C 352.547 169.119, 355.153 170.660, 358.038 172.844 C 360.922 175.027, 364.456 177.418, 365.891 178.157 C 367.326 178.895, 369.095 180.063, 369.821 180.750 C 370.548 181.437, 371.786 182, 372.571 182 C 373.357 182, 374 182.477, 374 183.059 C 374 183.641, 374.412 183.864, 374.915 183.553 C 375.418 183.242, 375.980 183.372, 376.165 183.843 C 376.640 185.056, 397.268 195, 399.309 195 C 400.239 195, 401 195.395, 401 195.878 C 401 196.361, 402.688 197.235, 404.750 197.819 C 406.813 198.403, 411.875 200.051, 416 201.480 C 426.818 205.230, 444.041 209.144, 450 209.206 C 450.825 209.214, 453.419 209.625, 455.765 210.118 C 458.111 210.612, 464.748 211.216, 470.515 211.462 L 481 211.910 481 170.205 L 481 128.500 478.750 128.384 C 473.946 128.137, 461.500 127.130, 461.500 126.987 C 461.500 126.905, 460.375 126.691, 459 126.511 C 457.625 126.331, 454.475 125.655, 452 125.009 C 449.525 124.362, 446.825 123.686, 446 123.506 C 445.175 123.326, 440.450 121.690, 435.500 119.871 C 430.550 118.053, 426.163 116.662, 425.750 116.782 C 425.337 116.902, 425 116.580, 425 116.067 C 425 115.554, 423.988 114.817, 422.750 114.428 C 421.512 114.040, 418.129 112.209, 415.231 110.361 C 412.332 108.512, 409.520 107, 408.981 107 C 408.441 107, 408 106.550, 408 106 C 408 105.450, 407.325 105, 406.500 105 C 405.675 105, 405 104.647, 405 104.216 C 405 103.784, 403.595 102.601, 401.879 101.587 C 398.611 99.657, 380.991 82.147, 377.445 77.306 C 371.099 68.643, 360.873 50.333, 360.264 46.543 C 360.091 45.467, 359.623 44.342, 359.225 44.043 C 358.826 43.745, 358.344 42.375, 358.152 41 C 357.961 39.625, 357.457 38.050, 357.033 37.500 C 356.350 36.615, 355.377 32.637, 354.344 26.500 C 354.158 25.400, 353.523 22.417, 352.933 19.872 C 352.342 17.326, 351.711 12.151, 351.530 8.372 C 351.349 4.592, 351.156 1.163, 351.101 0.750 C 351.045 0.337, 332.074 0, 308.943 0 L 266.885 0 266.946 180.250" stroke="none" fill="#ec1cb4" fill-rule="evenodd"/></svg>