<svg xmlns="http://www.w3.org/2000/svg" viewBox="0 0 1000 841.89"><defs><style>.cls-1{fill:#231f20;}.cls-2{fill:#d43f96;stroke:#1a1a1a;stroke-miterlimit:10;stroke-width:3px;}.cls-3{fill:#89898b;}.cls-4{fill:#625d65;}.cls-5{fill:#c93d82;}.cls-6{fill:#fff;}</style></defs><g id="Layer_3" data-name="Layer 3"><rect class="cls-1" width="1000" height="841.89"/></g><g id="Layer_1" data-name="Layer 1"><rect class="cls-2" x="99" y="340" width="89" height="80.94"/><rect class="cls-2" x="99" y="420.94" width="89" height="80.94"/><rect class="cls-2" x="99" y="501.89" width="89" height="80.94"/><rect class="cls-2" x="99" y="663.78" width="89" height="80.94"/><rect class="cls-2" x="99" y="744.72" width="89" height="80.94"/><rect class="cls-2" x="810" y="340" width="89" height="80.94"/><rect class="cls-2" x="810" y="420.94" width="89" height="80.94"/><rect class="cls-2" x="810" y="501.89" width="89" height="80.94"/><rect class="cls-2" x="810" y="663.78" width="89" height="80.94"/><rect class="cls-2" x="810" y="744.72" width="89" height="80.94"/><rect class="cls-3" x="304" y="32" width="63" height="222"/><rect class="cls-3" x="367" y="193" width="230" height="61"/><rect class="cls-4" x="917" y="340" width="62" height="485.67"/><rect class="cls-4" x="18.25" y="340" width="62" height="485.67"/><rect class="cls-5" x="378" y="527" width="239" height="93"/><rect class="cls-2" x="528" y="366.03" width="89" height="80.94"/><rect class="cls-2" x="378" y="366.03" width="89" height="80.94"/><rect class="cls-2" x="528" y="704.25" width="89" height="80.94"/><rect class="cls-2" x="378" y="704.25" width="89" height="80.94"/><path class="cls-6" d="M136.25,134c.38,1.68,1.53,2.56,3.55,2.56s3-1,3-2.29-.71-2.15-3.53-2.83c-3.5-.85-4.64-2.06-4.64-4.08,0-2.21,1.64-3.95,4.9-3.95,3.51,0,4.95,2,5.15,3.94H142.5c-.24-1.21-1-2.25-3-2.25-1.67,0-2.62.74-2.62,2s.78,1.8,3.28,2.4c4.13,1,4.89,2.59,4.89,4.48,0,2.39-1.77,4.21-5.36,4.21s-5.27-1.95-5.58-4.24Z"/><path class="cls-6" d="M157,131.36h-7.13v4.84h7.84L157.4,138h-9.67V123.57h9.57v1.82h-7.47v4.16H157Z"/><path class="cls-6" d="M162.73,133.87,161.26,138h-2.13l5.1-14.45h2.66L172.21,138h-2.28l-1.52-4.15Zm5.15-1.81c-1.31-3.66-2-5.66-2.37-6.8h0c-.35,1.26-1.17,3.67-2.23,6.8Z"/><path class="cls-6" d="M175.64,125.39H171v-1.82h11.38v1.82h-4.62V138h-2.15Z"/><path class="cls-6" d="M193.68,131.36h-7.13v4.84h7.83l-.27,1.82h-9.66V123.57H194v1.82h-7.46v4.16h7.13Z"/><path class="cls-6" d="M196.92,123.57h5.27c4.09,0,6.84,2.77,6.84,7.07s-2.68,7.38-6.91,7.38h-5.2Zm2.15,12.65H202c3.28,0,4.82-2.36,4.82-5.54,0-2.76-1.41-5.31-4.81-5.31h-2.91Z"/><path class="cls-6" d="M146.71,158.8a5.54,5.54,0,0,1-5.84,4.35c-4.37,0-6.55-3.27-6.55-7.36,0-3.93,2.19-7.48,6.63-7.48,3.49,0,5.35,2,5.76,4.42h-2.15a3.49,3.49,0,0,0-3.69-2.66c-3.07,0-4.31,2.79-4.31,5.66s1.17,5.67,4.4,5.67a3.55,3.55,0,0,0,3.59-2.6Z"/><path class="cls-6" d="M162.29,155.67c0,4-2.26,7.51-6.84,7.51-4.3,0-6.68-3.29-6.68-7.43s2.46-7.44,6.85-7.44C159.72,148.31,162.29,151.35,162.29,155.67Zm-11.28,0c0,3.07,1.53,5.69,4.53,5.69,3.25,0,4.51-2.68,4.51-5.67s-1.43-5.58-4.51-5.58S151,152.65,151,155.68Z"/><path class="cls-6" d="M176.83,158.8a5.53,5.53,0,0,1-5.84,4.35c-4.36,0-6.54-3.27-6.54-7.36,0-3.93,2.19-7.48,6.63-7.48,3.49,0,5.34,2,5.75,4.42h-2.14a3.51,3.51,0,0,0-3.69-2.66c-3.07,0-4.31,2.79-4.31,5.66s1.16,5.67,4.39,5.67a3.56,3.56,0,0,0,3.6-2.6Z"/><path class="cls-6" d="M179.58,148.52h2.13v7c1-1.12,4.59-4.68,6.78-7h2.64L185,154.6l6.42,8.37h-2.6l-5.32-7-1.79,1.63V163h-2.13Z"/><path class="cls-6" d="M196.78,150.34h-4.61v-1.82h11.38v1.82h-4.61V163h-2.16Z"/><path class="cls-6" d="M206.1,158.82,204.63,163H202.5l5.1-14.45h2.66L215.58,163H213.3l-1.52-4.15Zm5.15-1.81c-1.31-3.66-2.05-5.66-2.37-6.8h0c-.35,1.26-1.17,3.67-2.23,6.8Z"/><path class="cls-6" d="M219.9,148.52V163h-2.14V148.52Z"/><path class="cls-6" d="M223.74,148.52h2.15v12.63h7.47l-.29,1.82h-9.33Z"/><path class="cls-6" d="M138,175.29h-4.62v-1.82H144.8v1.82h-4.62v12.63H138Z"/><path class="cls-6" d="M147.35,183.77l-1.47,4.15h-2.13l5.1-14.45h2.65l5.32,14.45h-2.28L153,183.77Zm5.14-1.81c-1.31-3.66-2-5.66-2.36-6.8h0c-.36,1.26-1.18,3.67-2.23,6.8Z"/><path class="cls-6" d="M159,173.47h5.69c3.14,0,4.54,1.65,4.54,3.63a3.19,3.19,0,0,1-2,3.14,3.55,3.55,0,0,1,2.49,3.43c0,2.67-2.05,4.25-4.85,4.25H159Zm5.32,5.95c2,0,2.76-.79,2.76-2.13s-.89-2.08-2.5-2.08H161.1v4.21Zm-3.22,6.76h3.43c1.79,0,3-.83,3-2.53,0-1.5-1-2.49-3.26-2.49H161.1Z"/><path class="cls-6" d="M172.56,173.47h2.14V186.1h7.47l-.28,1.82h-9.33Z"/><path class="cls-6" d="M193.43,181.26H186.3v4.84h7.84l-.28,1.82H184.2V173.47h9.56v1.82H186.3v4.16h7.13Z"/><path class="cls-6" d="M198,183.86c.38,1.68,1.54,2.55,3.55,2.55s3-1,3-2.28-.71-2.15-3.53-2.83c-3.5-.85-4.64-2.06-4.64-4.08,0-2.21,1.64-4,4.9-4,3.51,0,5,2,5.14,3.94h-2.17c-.24-1.21-1-2.24-3-2.24-1.67,0-2.62.74-2.62,2s.78,1.8,3.28,2.4c4.13,1,4.89,2.59,4.89,4.48,0,2.39-1.77,4.21-5.36,4.21s-5.27-1.95-5.58-4.24Z"/><path class="cls-6" d="M402,468c.38,1.68,1.53,2.56,3.55,2.56s3-1,3-2.29-.71-2.15-3.53-2.83c-3.5-.84-4.64-2.06-4.64-4.07,0-2.22,1.64-4,4.9-4,3.51,0,4.95,2,5.15,3.94h-2.18c-.24-1.21-1-2.25-3-2.25-1.67,0-2.61.74-2.61,2.06s.77,1.8,3.27,2.39c4.13,1,4.9,2.6,4.9,4.49,0,2.39-1.78,4.21-5.37,4.21s-5.27-1.95-5.58-4.25Z"/><path class="cls-6" d="M416.41,459.39H411.8v-1.81h11.38v1.81h-4.61V472h-2.16Z"/><path class="cls-6" d="M425.73,467.88,424.26,472h-2.13l5.1-14.44h2.66L435.2,472h-2.27l-1.53-4.14Zm5.15-1.82c-1.31-3.65-2.05-5.65-2.37-6.79h0c-.35,1.26-1.18,3.67-2.23,6.79Z"/><path class="cls-6" d="M437.38,472V457.58h2.79c2,3.35,6.31,10.28,7.09,11.85h0c-.14-1.78-.13-4.11-.13-6.47v-5.38h2V472h-2.62c-1.84-3.07-6.35-10.61-7.22-12.24h0c.1,1.57.11,4.12.11,6.72V472Z"/><path class="cls-6" d="M453,457.58h5.27c4.09,0,6.83,2.77,6.83,7.07s-2.67,7.37-6.91,7.37H453Zm2.14,12.65H458c3.28,0,4.83-2.37,4.83-5.55,0-2.76-1.42-5.3-4.82-5.3h-2.91Z"/><path class="cls-6" d="M470.19,457.58V472h-2.14V457.58Z"/><path class="cls-6" d="M474,472V457.58h2.79c2,3.35,6.3,10.28,7.09,11.85h0c-.15-1.78-.14-4.11-.14-6.47v-5.38h2V472h-2.63c-1.84-3.07-6.35-10.61-7.22-12.24h0c.1,1.57.11,4.12.11,6.72V472Z"/><path class="cls-6" d="M501.42,472H499.8a7.38,7.38,0,0,1-.2-1.85c-.66,1-1.93,2.06-4.43,2.06-4.17,0-6.41-3.16-6.41-7.27,0-4.33,2.4-7.59,6.8-7.59,3.42,0,5.55,1.87,5.95,4.43h-2.14a3.61,3.61,0,0,0-3.85-2.67c-3.28,0-4.52,2.64-4.52,5.72,0,2.89,1.27,5.6,4.46,5.6s3.87-2.1,3.87-4.32V466h-3.9v-1.82h6Z"/><path class="cls-6" d="M521.6,467.86a5.53,5.53,0,0,1-5.84,4.35c-4.37,0-6.54-3.27-6.54-7.36,0-3.93,2.19-7.48,6.63-7.48,3.49,0,5.34,2,5.75,4.42h-2.14a3.5,3.5,0,0,0-3.69-2.66c-3.07,0-4.31,2.79-4.31,5.65s1.16,5.67,4.39,5.67a3.56,3.56,0,0,0,3.6-2.59Z"/><path class="cls-6" d="M537.19,464.73c0,4-2.27,7.5-6.84,7.5-4.31,0-6.68-3.29-6.68-7.43s2.46-7.43,6.85-7.43C534.62,457.37,537.19,460.41,537.19,464.73Zm-11.29,0c0,3.06,1.53,5.69,4.54,5.69,3.24,0,4.51-2.68,4.51-5.67s-1.44-5.58-4.52-5.58S525.9,461.71,525.9,464.74Z"/><path class="cls-6" d="M551.73,467.86a5.54,5.54,0,0,1-5.84,4.35c-4.37,0-6.55-3.27-6.55-7.36,0-3.93,2.2-7.48,6.64-7.48,3.49,0,5.34,2,5.75,4.42h-2.14a3.5,3.5,0,0,0-3.69-2.66c-3.07,0-4.32,2.79-4.32,5.65s1.17,5.67,4.4,5.67a3.57,3.57,0,0,0,3.6-2.59Z"/><path class="cls-6" d="M554.48,457.58h2.12v7c1.06-1.11,4.59-4.67,6.78-7H566l-6.14,6.07,6.43,8.37h-2.6l-5.33-7-1.79,1.64V472h-2.12Z"/><path class="cls-6" d="M571.68,459.39h-4.61v-1.81h11.38v1.81h-4.62V472h-2.15Z"/><path class="cls-6" d="M581,467.88,579.53,472H577.4l5.1-14.44h2.65L590.47,472H588.2l-1.53-4.14Zm5.15-1.82c-1.31-3.65-2-5.65-2.37-6.79h0c-.35,1.26-1.18,3.67-2.23,6.79Z"/><path class="cls-6" d="M594.8,457.58V472h-2.15V457.58Z"/><path class="cls-6" d="M598.64,457.58h2.14v12.63h7.47L608,472h-9.33Z"/><path class="cls-6" d="M471.31,484.34H466.7v-1.81h11.38v1.81h-4.61V497h-2.16Z"/><path class="cls-6" d="M480.63,492.83,479.16,497H477l5.1-14.44h2.65L490.1,497h-2.27l-1.53-4.14Zm5.15-1.82c-1.31-3.65-2-5.65-2.37-6.79h0c-.35,1.26-1.18,3.67-2.23,6.79Z"/><path class="cls-6" d="M492.28,482.53H498c3.14,0,4.54,1.65,4.54,3.62a3.19,3.19,0,0,1-2,3.15,3.55,3.55,0,0,1,2.49,3.43c0,2.67-2.05,4.24-4.85,4.24h-5.84Zm5.33,6c2,0,2.75-.8,2.75-2.13s-.89-2.08-2.5-2.08h-3.47v4.21Zm-3.22,6.75h3.42c1.79,0,3-.82,3-2.53,0-1.49-1-2.48-3.26-2.48h-3.12Z"/><path class="cls-6" d="M505.84,482.53H508v12.63h7.47l-.28,1.81h-9.33Z"/><path class="cls-6" d="M526.71,490.32h-7.13v4.84h7.84l-.27,1.81h-9.67V482.53h9.57v1.81h-7.47v4.17h7.13Z"/><path class="cls-6" d="M531.26,492.91c.38,1.68,1.53,2.56,3.55,2.56s3-1,3-2.29-.71-2.15-3.53-2.83c-3.5-.84-4.64-2.06-4.64-4.07,0-2.22,1.64-4,4.9-4,3.51,0,5,2,5.15,3.94h-2.18c-.24-1.21-1-2.25-3-2.25-1.67,0-2.61.74-2.61,2.05s.77,1.8,3.27,2.4c4.13,1,4.9,2.6,4.9,4.49,0,2.39-1.78,4.21-5.37,4.21s-5.27-2-5.58-4.25Z"/><path class="cls-6" d="M202.89,457.36c.38,1.68,1.54,2.55,3.55,2.55s3-1,3-2.28-.71-2.16-3.52-2.83c-3.5-.85-4.65-2.06-4.65-4.08,0-2.21,1.64-4,4.9-4,3.52,0,5,2,5.15,3.94h-2.17c-.24-1.21-1-2.24-3.05-2.24-1.66,0-2.61.74-2.61,2.05s.78,1.8,3.27,2.4c4.14,1,4.9,2.59,4.9,4.48,0,2.39-1.78,4.21-5.36,4.21s-5.28-2-5.58-4.24Z"/><path class="cls-6" d="M227.25,454.12c0,4-2.26,7.51-6.84,7.51-4.3,0-6.68-3.29-6.68-7.44s2.46-7.43,6.86-7.43C224.68,446.76,227.25,449.8,227.25,454.12Zm-11.28,0c0,3.07,1.53,5.69,4.53,5.69,3.25,0,4.52-2.68,4.52-5.67s-1.44-5.58-4.52-5.58S216,451.1,216,454.13Zm8,5.49,4.23,3-1.29,1.48L222,460.61Z"/><path class="cls-6" d="M232.39,447v8.68c0,3.29,1.79,4.19,3.58,4.19,2.1,0,3.55-1,3.55-4.19V447h2.15v8.57c0,4.73-2.65,6.06-5.74,6.06s-5.7-1.43-5.7-5.94V447Z"/><path class="cls-6" d="M247.05,457.27l-1.47,4.15h-2.13l5.1-14.45h2.66l5.31,14.45h-2.27l-1.53-4.15Zm5.15-1.81c-1.31-3.66-2-5.66-2.37-6.8h0c-.35,1.26-1.17,3.67-2.23,6.8Z"/><path class="cls-6" d="M260.82,455.17v6.25H258.7V447h5.78c3,0,4.61,1.64,4.61,3.89a3.33,3.33,0,0,1-2.4,3.4c1.1.3,2.13,1.16,2.13,3.68v.64a10.54,10.54,0,0,0,.2,2.84H267a10,10,0,0,1-.26-3.13V458c0-2-.54-2.83-3.08-2.83Zm0-1.78h3c2.12,0,3-.8,3-2.34s-1-2.3-2.84-2.3h-3.23Z"/><path class="cls-6" d="M281.47,454.76h-7.13v4.84h7.84l-.27,1.82h-9.67V447h9.56v1.82h-7.46V453h7.13Z"/><path class="cls-6" d="M208.94,473.74h-4.62v-1.82h11.39v1.82h-4.62v12.63h-2.15Z"/><path class="cls-6" d="M218.26,482.22l-1.48,4.15h-2.12l5.1-14.45h2.65l5.32,14.45h-2.28l-1.52-4.15Zm5.14-1.81c-1.31-3.66-2.05-5.66-2.36-6.8h0c-.35,1.26-1.17,3.67-2.23,6.8Z"/><path class="cls-6" d="M229.91,471.92h5.69c3.13,0,4.54,1.65,4.54,3.63a3.19,3.19,0,0,1-2,3.14,3.55,3.55,0,0,1,2.49,3.43c0,2.67-2,4.25-4.85,4.25h-5.84Zm5.32,5.95c2,0,2.76-.79,2.76-2.13s-.9-2.08-2.5-2.08H232v4.21ZM232,484.63h3.43c1.79,0,3-.83,3-2.53,0-1.5-1-2.49-3.26-2.49H232Z"/><path class="cls-6" d="M243.46,471.92h2.15v12.63h7.47l-.29,1.82h-9.33Z"/><path class="cls-6" d="M264.34,479.71H257.2v4.84H265l-.27,1.82h-9.66V471.92h9.56v1.82H257.2v4.16h7.14Z"/><path class="cls-6" d="M268.88,482.31c.38,1.67,1.54,2.55,3.55,2.55s3-1,3-2.28-.7-2.16-3.52-2.83c-3.5-.85-4.65-2.06-4.65-4.08,0-2.21,1.64-4,4.91-4,3.51,0,4.95,2,5.14,3.94h-2.17c-.24-1.21-1-2.24-3.05-2.24-1.66,0-2.61.74-2.61,2s.78,1.8,3.27,2.4c4.14,1,4.9,2.59,4.9,4.48,0,2.39-1.77,4.21-5.36,4.21s-5.28-1.95-5.58-4.24Z"/><path class="cls-6" d="M713,740.66c.38,1.68,1.54,2.56,3.55,2.56s3-1,3-2.29-.71-2.15-3.52-2.83c-3.51-.84-4.65-2.06-4.65-4.07,0-2.22,1.64-4,4.9-4,3.52,0,5,2,5.15,3.94h-2.18c-.23-1.21-1-2.25-3-2.25-1.67,0-2.61.74-2.61,2.06s.78,1.8,3.27,2.39c4.13,1,4.9,2.6,4.9,4.49,0,2.39-1.78,4.21-5.37,4.21s-5.27-1.95-5.58-4.25Z"/><path class="cls-6" d="M737.38,737.43c0,4-2.26,7.5-6.84,7.5-4.3,0-6.68-3.29-6.68-7.43s2.46-7.43,6.85-7.43C734.81,730.07,737.38,733.11,737.38,737.43Zm-11.28,0c0,3.06,1.53,5.69,4.53,5.69,3.25,0,4.51-2.68,4.51-5.67s-1.43-5.58-4.51-5.58S726.1,734.41,726.1,737.44Zm8,5.49,4.23,3-1.29,1.48-4.91-3.46Z"/><path class="cls-6" d="M742.52,730.28V739c0,3.29,1.79,4.19,3.58,4.19,2.09,0,3.54-1,3.54-4.19v-8.68h2.16v8.57c0,4.73-2.65,6.06-5.74,6.06s-5.71-1.43-5.71-5.94v-8.69Z"/><path class="cls-6" d="M757.18,740.58l-1.47,4.14h-2.13l5.1-14.44h2.65l5.32,14.44h-2.27l-1.53-4.14Zm5.15-1.82c-1.31-3.65-2.05-5.65-2.37-6.79h0c-.36,1.26-1.18,3.67-2.23,6.79Z"/><path class="cls-6" d="M771,738.47v6.25h-2.12V730.28h5.78c3,0,4.6,1.63,4.6,3.88a3.31,3.31,0,0,1-2.39,3.4c1.09.31,2.13,1.17,2.13,3.69v.63a10.08,10.08,0,0,0,.2,2.84h-2.07a9.63,9.63,0,0,1-.26-3.13v-.29c0-2-.55-2.83-3.09-2.83Zm0-1.78h3c2.12,0,3-.79,3-2.34s-1-2.29-2.84-2.29H771Z"/><path class="cls-6" d="M791.6,738.07h-7.14v4.84h7.84l-.27,1.81h-9.66V730.28h9.56v1.81h-7.47v4.17h7.14Z"/><path class="cls-6" d="M719.06,757h-4.61v-1.81h11.38V757h-4.61v12.63h-2.16Z"/><path class="cls-6" d="M728.38,765.53l-1.47,4.14h-2.13l5.1-14.44h2.66l5.32,14.44h-2.28l-1.52-4.14Zm5.15-1.82c-1.31-3.65-2-5.65-2.37-6.79h0c-.35,1.26-1.17,3.67-2.23,6.79Z"/><path class="cls-6" d="M740,755.23h5.68c3.14,0,4.54,1.65,4.54,3.62a3.19,3.19,0,0,1-2,3.15,3.55,3.55,0,0,1,2.49,3.43c0,2.67-2.05,4.24-4.86,4.24H740Zm5.32,5.95c2,0,2.76-.8,2.76-2.13s-.9-2.08-2.5-2.08h-3.48v4.21Zm-3.22,6.75h3.43c1.79,0,2.95-.82,2.95-2.53,0-1.49-1-2.48-3.25-2.48h-3.13Z"/><path class="cls-6" d="M753.59,755.23h2.15v12.63h7.47l-.29,1.81h-9.33Z"/><path class="cls-6" d="M774.46,763h-7.13v4.84h7.84l-.27,1.81h-9.67V755.23h9.57V757h-7.47v4.17h7.13Z"/><path class="cls-6" d="M779,765.61c.38,1.68,1.54,2.56,3.55,2.56s3-1,3-2.29-.71-2.15-3.52-2.83c-3.51-.84-4.65-2.06-4.65-4.07,0-2.22,1.64-4,4.9-4,3.52,0,5,2,5.15,3.94h-2.18c-.23-1.21-1-2.25-3-2.25-1.67,0-2.61.74-2.61,2s.78,1.8,3.27,2.4c4.14,1,4.9,2.6,4.9,4.49,0,2.39-1.78,4.21-5.36,4.21s-5.28-2-5.59-4.25Z"/><path class="cls-6" d="M202.89,733.2c.38,1.68,1.54,2.56,3.55,2.56s3-1,3-2.29-.71-2.15-3.52-2.82c-3.51-.85-4.65-2.07-4.65-4.08,0-2.22,1.64-4,4.9-4,3.52,0,5,2,5.15,3.94h-2.17c-.24-1.21-1-2.25-3.05-2.25-1.66,0-2.61.74-2.61,2.06s.78,1.8,3.27,2.39c4.14,1,4.9,2.6,4.9,4.49,0,2.39-1.78,4.21-5.36,4.21s-5.28-2-5.59-4.25Z"/><path class="cls-6" d="M227.25,730c0,4-2.26,7.5-6.84,7.5-4.3,0-6.68-3.29-6.68-7.43s2.46-7.43,6.86-7.43C224.68,722.61,227.25,725.65,227.25,730ZM216,730c0,3.06,1.53,5.69,4.53,5.69,3.25,0,4.52-2.68,4.52-5.67s-1.44-5.58-4.52-5.58S216,727,216,730Zm8,5.49,4.23,3-1.29,1.48L222,736.46Z"/><path class="cls-6" d="M232.39,722.82v8.68c0,3.29,1.79,4.19,3.58,4.19,2.1,0,3.55-1,3.55-4.19v-8.68h2.15v8.57c0,4.73-2.65,6.06-5.74,6.06s-5.7-1.43-5.7-5.94v-8.69Z"/><path class="cls-6" d="M247.05,733.12l-1.47,4.14h-2.13l5.1-14.44h2.66l5.31,14.44h-2.27l-1.53-4.14Zm5.15-1.81c-1.31-3.66-2-5.66-2.37-6.8h0c-.35,1.26-1.18,3.67-2.23,6.8Z"/><path class="cls-6" d="M260.82,731v6.25H258.7V722.82h5.78c3,0,4.61,1.63,4.61,3.88a3.32,3.32,0,0,1-2.4,3.4c1.1.31,2.13,1.17,2.13,3.69v.63a10.47,10.47,0,0,0,.2,2.84H267a9.93,9.93,0,0,1-.26-3.13v-.29c0-2-.54-2.83-3.09-2.83Zm0-1.77h3c2.12,0,3-.8,3-2.35s-1-2.29-2.84-2.29h-3.23Z"/><path class="cls-6" d="M281.47,730.61h-7.13v4.84h7.83l-.27,1.81h-9.66V722.82h9.56v1.81h-7.46v4.17h7.13Z"/><path class="cls-6" d="M208.94,749.58h-4.62v-1.81h11.39v1.81h-4.62v12.63h-2.15Z"/><path class="cls-6" d="M218.26,758.07l-1.48,4.14h-2.12l5.1-14.44h2.65l5.32,14.44h-2.28l-1.52-4.14Zm5.14-1.82c-1.31-3.65-2.05-5.65-2.36-6.79h0c-.35,1.26-1.17,3.67-2.23,6.79Z"/><path class="cls-6" d="M229.91,747.77h5.69c3.13,0,4.54,1.65,4.54,3.62a3.2,3.2,0,0,1-2,3.15A3.55,3.55,0,0,1,240.6,758c0,2.67-2,4.24-4.85,4.24h-5.84Zm5.32,6c2,0,2.76-.8,2.76-2.13s-.9-2.08-2.5-2.08H232v4.21ZM232,760.48h3.43c1.79,0,3-.83,3-2.54,0-1.49-1-2.48-3.26-2.48H232Z"/><path class="cls-6" d="M243.46,747.77h2.15V760.4h7.47l-.29,1.81h-9.33Z"/><path class="cls-6" d="M264.34,755.56H257.2v4.84H265l-.27,1.81h-9.66V747.77h9.56v1.81H257.2v4.17h7.14Z"/><path class="cls-6" d="M268.88,758.15c.38,1.68,1.54,2.56,3.55,2.56s3-1,3-2.29-.71-2.15-3.52-2.83c-3.5-.84-4.65-2.06-4.65-4.07,0-2.22,1.64-4,4.91-4,3.51,0,4.95,2,5.14,3.94h-2.17c-.24-1.21-1-2.25-3.05-2.25-1.66,0-2.61.75-2.61,2.06s.78,1.8,3.27,2.39c4.14,1,4.9,2.6,4.9,4.49,0,2.39-1.78,4.21-5.36,4.21s-5.28-1.95-5.58-4.25Z"/><path class="cls-6" d="M713,445.2c.38,1.68,1.54,2.56,3.55,2.56s3-1,3-2.29-.71-2.15-3.52-2.82c-3.51-.85-4.65-2.07-4.65-4.08,0-2.22,1.64-4,4.9-4,3.52,0,5,2,5.15,3.94h-2.18c-.23-1.21-1-2.25-3-2.25-1.67,0-2.61.74-2.61,2.06s.78,1.8,3.27,2.39c4.13,1,4.9,2.6,4.9,4.49,0,2.39-1.78,4.21-5.37,4.21s-5.27-1.95-5.58-4.25Z"/><path class="cls-6" d="M737.38,442c0,4-2.26,7.5-6.84,7.5-4.3,0-6.68-3.29-6.68-7.43s2.46-7.43,6.85-7.43C734.81,434.61,737.38,437.65,737.38,442Zm-11.28,0c0,3.06,1.53,5.69,4.53,5.69,3.25,0,4.51-2.68,4.51-5.67s-1.43-5.58-4.51-5.58S726.1,439,726.1,442Zm8,5.49,4.23,3-1.29,1.48-4.91-3.46Z"/><path class="cls-6" d="M742.52,434.82v8.68c0,3.29,1.79,4.19,3.58,4.19,2.09,0,3.54-1,3.54-4.19v-8.68h2.16v8.57c0,4.73-2.65,6.06-5.74,6.06s-5.71-1.43-5.71-5.94v-8.69Z"/><path class="cls-6" d="M757.18,445.12l-1.47,4.14h-2.13l5.1-14.44h2.65l5.32,14.44h-2.27l-1.53-4.14Zm5.15-1.81c-1.31-3.66-2.05-5.66-2.37-6.8h0c-.36,1.26-1.18,3.67-2.23,6.8Z"/><path class="cls-6" d="M771,443v6.25h-2.12V434.82h5.78c3,0,4.6,1.63,4.6,3.88a3.31,3.31,0,0,1-2.39,3.4c1.09.31,2.13,1.17,2.13,3.69v.63a10.08,10.08,0,0,0,.2,2.84h-2.07a9.63,9.63,0,0,1-.26-3.13v-.29c0-2-.55-2.83-3.09-2.83Zm0-1.77h3c2.12,0,3-.8,3-2.35s-1-2.29-2.84-2.29H771Z"/><path class="cls-6" d="M791.6,442.61h-7.14v4.84h7.84l-.27,1.81h-9.66V434.82h9.56v1.81h-7.47v4.17h7.14Z"/><path class="cls-6" d="M719.06,461.58h-4.61v-1.81h11.38v1.81h-4.61v12.63h-2.16Z"/><path class="cls-6" d="M728.38,470.07l-1.47,4.14h-2.13l5.1-14.44h2.66l5.32,14.44h-2.28l-1.52-4.14Zm5.15-1.82c-1.31-3.65-2-5.65-2.37-6.79h0c-.35,1.26-1.17,3.67-2.23,6.79Z"/><path class="cls-6" d="M740,459.77h5.68c3.14,0,4.54,1.65,4.54,3.62a3.19,3.19,0,0,1-2,3.15,3.55,3.55,0,0,1,2.49,3.43c0,2.67-2.05,4.24-4.86,4.24H740Zm5.32,6c2,0,2.76-.8,2.76-2.13s-.9-2.08-2.5-2.08h-3.48v4.21Zm-3.22,6.76h3.43c1.79,0,2.95-.83,2.95-2.54,0-1.49-1-2.48-3.25-2.48h-3.13Z"/><path class="cls-6" d="M753.59,459.77h2.15V472.4h7.47l-.29,1.81h-9.33Z"/><path class="cls-6" d="M774.46,467.56h-7.13v4.84h7.84l-.27,1.81h-9.67V459.77h9.57v1.81h-7.47v4.17h7.13Z"/><path class="cls-6" d="M779,470.15c.38,1.68,1.54,2.56,3.55,2.56s3-1,3-2.29-.71-2.15-3.52-2.83c-3.51-.84-4.65-2.06-4.65-4.07,0-2.22,1.64-4,4.9-4,3.52,0,5,2,5.15,3.94h-2.18c-.23-1.21-1-2.25-3-2.25-1.67,0-2.61.75-2.61,2.06s.78,1.8,3.27,2.39c4.14,1,4.9,2.6,4.9,4.49,0,2.39-1.78,4.21-5.36,4.21s-5.28-1.95-5.59-4.25Z"/><path class="cls-6" d="M397.77,555.83h11.31c8.78,0,14.68,5.94,14.68,15.17s-5.75,15.83-14.84,15.83H397.77ZM402.38,583h6.22c7,0,10.36-5.07,10.36-11.91,0-5.92-3-11.39-10.34-11.39h-6.24Z"/><path class="cls-6" d="M437.16,577.62c0,7-2.67,9.66-8.16,9.66a16,16,0,0,1-3.45-.33v-3.79a18.84,18.84,0,0,0,2.91.21c3.61,0,4.1-2.64,4.1-5.55v-22h4.6Z"/><path class="cls-6" d="M456.17,555.83h12.21c6.74,0,9.75,3.53,9.75,7.78a6.85,6.85,0,0,1-4.36,6.75,7.59,7.59,0,0,1,5.35,7.35c0,5.75-4.4,9.12-10.42,9.12H456.17Zm11.43,12.76c4.24,0,5.91-1.7,5.91-4.57,0-2.65-1.92-4.46-5.36-4.46h-7.46v9Zm-6.91,14.51H468c3.84,0,6.35-1.77,6.35-5.43,0-3.21-2.06-5.34-7-5.34h-6.71Z"/><path class="cls-6" d="M512.61,571.17c0,8.55-4.86,16.11-14.69,16.11-9.24,0-14.33-7.06-14.33-15.95s5.28-16,14.7-16C507.09,555.38,512.61,561.9,512.61,571.17Zm-24.22,0c0,6.58,3.28,12.21,9.73,12.21,7,0,9.69-5.76,9.69-12.18s-3.09-12-9.71-12S488.39,564.69,488.39,571.2Z"/><path class="cls-6" d="M546.27,571.17c0,8.55-4.86,16.11-14.69,16.11-9.24,0-14.33-7.06-14.33-15.95s5.28-16,14.71-16C540.75,555.38,546.27,561.9,546.27,571.17Zm-24.22,0c0,6.58,3.28,12.21,9.73,12.21,7,0,9.69-5.76,9.69-12.18s-3.09-12-9.7-12S522.05,564.69,522.05,571.2Z"/><path class="cls-6" d="M558.15,559.72h-9.9v-3.89h24.44v3.89h-9.91v27.11h-4.63Z"/><path class="cls-6" d="M577.07,555.83h4.6v12.78h15.47V555.83h4.6v31h-4.6V572.51H581.67v14.32h-4.6Z"/><path class="cls-6" d="M428.6,209.66h10.24c5.64,0,8.17,3,8.17,6.53a5.75,5.75,0,0,1-3.65,5.66,6.36,6.36,0,0,1,4.48,6.16c0,4.82-3.69,7.65-8.73,7.65H428.6Zm9.58,10.71c3.56,0,5-1.43,5-3.83,0-2.23-1.61-3.75-4.5-3.75h-6.26v7.58Zm-5.8,12.16h6.17c3.22,0,5.32-1.48,5.32-4.56,0-2.68-1.72-4.47-5.86-4.47h-5.63Z"/><path class="cls-6" d="M457,228.2l-2.65,7.46h-3.83l9.18-26h4.78l9.57,26h-4.1l-2.74-7.46Zm9.27-3.27c-2.36-6.57-3.69-10.18-4.26-12.23h0c-.64,2.27-2.12,6.61-4,12.23Z"/><path class="cls-6" d="M481.74,224.41v11.25h-3.81v-26h10.4c5.41,0,8.29,2.94,8.29,7a6,6,0,0,1-4.31,6.12c2,.56,3.83,2.09,3.83,6.63v1.15a18.69,18.69,0,0,0,.36,5.11h-3.73c-.47-1.12-.46-3.13-.46-5.63v-.53c0-3.53-1-5.09-5.56-5.09Zm0-3.2h5.48c3.8,0,5.44-1.43,5.44-4.21s-1.72-4.14-5.1-4.14h-5.82Z"/><path class="cls-6" d="M397,669.93c.38,1.68,1.53,2.56,3.55,2.56s3-1,3-2.29-.71-2.15-3.53-2.83c-3.5-.85-4.64-2.06-4.64-4.08,0-2.21,1.64-3.95,4.9-3.95,3.51,0,4.95,2,5.15,3.94h-2.18c-.24-1.21-1-2.25-3-2.25-1.67,0-2.61.74-2.61,2.05s.77,1.8,3.27,2.4c4.13,1,4.9,2.59,4.9,4.48,0,2.39-1.78,4.21-5.37,4.21s-5.27-1.95-5.58-4.24Z"/><path class="cls-6" d="M411.41,661.36H406.8v-1.82h11.38v1.82h-4.61V674h-2.16Z"/><path class="cls-6" d="M420.73,669.84,419.26,674h-2.13l5.1-14.45h2.66L430.2,674h-2.27l-1.53-4.15Zm5.15-1.81c-1.31-3.66-2.05-5.66-2.37-6.8h0c-.35,1.27-1.18,3.67-2.23,6.8Z"/><path class="cls-6" d="M432.38,674V659.54h2.79c2,3.36,6.31,10.29,7.09,11.86h0c-.14-1.79-.13-4.11-.13-6.47v-5.39h2V674h-2.62c-1.84-3.08-6.35-10.62-7.22-12.25h0c.1,1.58.11,4.12.11,6.73V674Z"/><path class="cls-6" d="M448,659.54h5.27c4.08,0,6.83,2.77,6.83,7.07s-2.67,7.38-6.91,7.38H448Zm2.14,12.65H453c3.28,0,4.83-2.36,4.83-5.54,0-2.76-1.42-5.31-4.82-5.31h-2.91Z"/><path class="cls-6" d="M465.19,659.54V674h-2.14V659.54Z"/><path class="cls-6" d="M469,674V659.54h2.79c2,3.36,6.3,10.29,7.09,11.86h0c-.15-1.79-.14-4.11-.14-6.47v-5.39h2V674h-2.63c-1.84-3.08-6.35-10.62-7.22-12.25h0c.1,1.58.11,4.12.11,6.73V674Z"/><path class="cls-6" d="M496.42,674H494.8a7.56,7.56,0,0,1-.2-1.86c-.66,1-1.93,2.06-4.43,2.06-4.17,0-6.41-3.16-6.41-7.27,0-4.33,2.4-7.58,6.8-7.58,3.42,0,5.55,1.87,5.95,4.43h-2.15a3.59,3.59,0,0,0-3.85-2.68c-3.28,0-4.51,2.64-4.51,5.73,0,2.88,1.27,5.6,4.45,5.6s3.88-2.1,3.88-4.32V668h-3.9v-1.82h6Z"/><path class="cls-6" d="M516.6,669.83a5.53,5.53,0,0,1-5.84,4.34c-4.37,0-6.54-3.27-6.54-7.35s2.19-7.48,6.63-7.48c3.49,0,5.34,2,5.75,4.41h-2.14a3.51,3.51,0,0,0-3.69-2.66c-3.07,0-4.32,2.79-4.32,5.66s1.17,5.67,4.4,5.67a3.57,3.57,0,0,0,3.6-2.59Z"/><path class="cls-6" d="M532.19,666.69c0,4-2.27,7.51-6.84,7.51-4.31,0-6.68-3.29-6.68-7.43s2.46-7.43,6.85-7.43C529.62,659.34,532.19,662.37,532.19,666.69Zm-11.29,0c0,3.07,1.53,5.69,4.54,5.69,3.24,0,4.51-2.68,4.51-5.67s-1.44-5.58-4.52-5.58S520.9,663.67,520.9,666.7Z"/><path class="cls-6" d="M546.73,669.83a5.54,5.54,0,0,1-5.84,4.34c-4.37,0-6.55-3.27-6.55-7.35s2.2-7.48,6.64-7.48c3.49,0,5.34,2,5.75,4.41h-2.14a3.51,3.51,0,0,0-3.69-2.66c-3.07,0-4.32,2.79-4.32,5.66s1.17,5.67,4.4,5.67a3.58,3.58,0,0,0,3.6-2.59Z"/><path class="cls-6" d="M549.48,659.54h2.12v7c1.06-1.11,4.59-4.68,6.78-7H561l-6.14,6.08,6.43,8.37h-2.6l-5.33-7-1.79,1.63V674h-2.12Z"/><path class="cls-6" d="M566.68,661.36h-4.61v-1.82h11.38v1.82h-4.62V674h-2.15Z"/><path class="cls-6" d="M576,669.84,574.53,674H572.4l5.1-14.45h2.65L585.47,674H583.2l-1.53-4.15Zm5.15-1.81c-1.31-3.66-2-5.66-2.37-6.8h0c-.35,1.27-1.18,3.67-2.23,6.8Z"/><path class="cls-6" d="M589.8,659.54V674h-2.15V659.54Z"/><path class="cls-6" d="M593.64,659.54h2.14v12.63h7.47L603,674h-9.33Z"/><path class="cls-6" d="M466.31,686.31H461.7v-1.82h11.38v1.82h-4.62v12.63h-2.15Z"/><path class="cls-6" d="M475.63,694.79l-1.47,4.15H472l5.1-14.45h2.65l5.32,14.45h-2.27l-1.53-4.15Zm5.15-1.81c-1.31-3.66-2-5.66-2.37-6.8h0c-.35,1.26-1.18,3.67-2.23,6.8Z"/><path class="cls-6" d="M487.28,684.49H493c3.14,0,4.54,1.65,4.54,3.63a3.17,3.17,0,0,1-2,3.14,3.55,3.55,0,0,1,2.49,3.43c0,2.68-2.05,4.25-4.85,4.25h-5.84Zm5.33,6c2,0,2.75-.79,2.75-2.13s-.89-2.08-2.5-2.08h-3.47v4.21Zm-3.22,6.76h3.42c1.79,0,3-.82,3-2.53,0-1.49-1-2.49-3.26-2.49h-3.12Z"/><path class="cls-6" d="M500.84,684.49H503v12.63h7.47l-.28,1.82h-9.33Z"/><path class="cls-6" d="M521.71,692.29h-7.13v4.83h7.84l-.27,1.82h-9.67V684.49h9.57v1.82h-7.47v4.16h7.13Z"/><path class="cls-6" d="M526.26,694.88c.38,1.68,1.53,2.56,3.55,2.56s3-1,3-2.29-.71-2.15-3.53-2.83c-3.5-.85-4.64-2.06-4.64-4.08,0-2.21,1.64-4,4.9-4,3.51,0,5,2,5.15,3.94h-2.18c-.24-1.21-1-2.25-3-2.25-1.67,0-2.61.74-2.61,2s.77,1.8,3.27,2.4c4.13,1,4.9,2.59,4.9,4.48,0,2.39-1.78,4.21-5.37,4.21s-5.27-2-5.58-4.24Z"/><path class="cls-6" d="M57.76,597.37a5.53,5.53,0,0,1,4.34,5.84c0,4.36-3.27,6.54-7.35,6.54s-7.48-2.19-7.48-6.63c0-3.49,2-5.34,4.41-5.76v2.15A3.49,3.49,0,0,0,49,603.2c0,3.07,2.79,4.31,5.66,4.31s5.67-1.16,5.67-4.39a3.56,3.56,0,0,0-2.59-3.6Z"/><path class="cls-6" d="M54.62,581.78c4,0,7.51,2.26,7.51,6.84,0,4.31-3.29,6.68-7.43,6.68s-7.43-2.46-7.43-6.85C47.27,584.35,50.3,581.78,54.62,581.78Zm0,11.28c3.07,0,5.69-1.53,5.69-4.53,0-3.24-2.68-4.51-5.67-4.51s-5.58,1.44-5.58,4.52S51.6,593.06,54.63,593.06Z"/><path class="cls-6" d="M47.47,576.75h8.68c3.29,0,4.2-1.79,4.2-3.58,0-2.1-1-3.55-4.2-3.55H47.47v-2.15H56c4.74,0,6.06,2.65,6.06,5.74s-1.42,5.7-5.94,5.7H47.47Z"/><path class="cls-6" d="M57.76,552.27a5.54,5.54,0,0,1,4.34,5.84c0,4.37-3.27,6.54-7.35,6.54s-7.48-2.19-7.48-6.63c0-3.49,2-5.34,4.41-5.75v2.14A3.51,3.51,0,0,0,49,558.1c0,3.07,2.79,4.32,5.66,4.32s5.67-1.17,5.67-4.4a3.57,3.57,0,0,0-2.59-3.6Z"/><path class="cls-6" d="M47.47,549.52v-2.14h6v-7.21h-6V538H61.92v2.14H55.25v7.21h6.67v2.14Z"/><path class="cls-6" d="M952.16,549.63a5.53,5.53,0,0,1-4.34-5.84c0-4.37,3.27-6.54,7.35-6.54s7.48,2.19,7.48,6.63c0,3.49-2,5.34-4.41,5.75v-2.14a3.51,3.51,0,0,0,2.66-3.69c0-3.07-2.79-4.32-5.66-4.32s-5.67,1.17-5.67,4.4a3.57,3.57,0,0,0,2.59,3.6Z"/><path class="cls-6" d="M955.3,565.22c-4,0-7.51-2.27-7.51-6.84,0-4.31,3.29-6.68,7.43-6.68s7.43,2.46,7.43,6.85C962.65,562.65,959.62,565.22,955.3,565.22Zm0-11.29c-3.07,0-5.69,1.53-5.69,4.54,0,3.24,2.68,4.51,5.67,4.51s5.58-1.44,5.58-4.52S958.32,553.93,955.29,553.93Z"/><path class="cls-6" d="M962.45,570.25h-8.68c-3.29,0-4.2,1.79-4.2,3.58,0,2.1,1,3.55,4.2,3.55h8.68v2.15h-8.57c-4.74,0-6.06-2.65-6.06-5.74s1.42-5.7,5.94-5.7h8.69Z"/><path class="cls-6" d="M952.16,594.73a5.54,5.54,0,0,1-4.34-5.84c0-4.37,3.27-6.55,7.35-6.55s7.48,2.2,7.48,6.64c0,3.49-2,5.34-4.41,5.75v-2.14a3.51,3.51,0,0,0,2.66-3.69c0-3.07-2.79-4.32-5.66-4.32s-5.67,1.17-5.67,4.4a3.58,3.58,0,0,0,2.59,3.6Z"/><path class="cls-6" d="M962.45,597.48v2.14h-6v7.21h6V609H948v-2.14h6.68v-7.21H948v-2.14Z"/></g><g id="Layer_2" data-name="Layer 2"><circle class="cls-2" cx="80.25" cy="99.75" r="46.25"/><circle class="cls-2" cx="80.25" cy="225.5" r="46.25"/></g></svg>